<?xml version="1.0" ?>
<!-- Uploaded to: SVG Repo, www.svgrepo.com, Generator: SVG Repo Mixer Tools -->
<svg width="800px" height="800px" viewBox="0 0 32 32" id="Camada_1" version="1.1" xml:space="preserve" xmlns="http://www.w3.org/2000/svg" xmlns:xlink="http://www.w3.org/1999/xlink">
<style type="text/css">
	.st0{fill:#FFFFFF;}
	.st1{fill:#030708;}
	.st2{fill-rule:evenodd;clip-rule:evenodd;fill:#030708;}
</style>
<path d="M6,2h20c2.2,0,4,1.8,4,4v20c0,2.2-1.8,4-4,4H6c-2.2,0-4-1.8-4-4V6C2,3.8,3.8,2,6,2z"/>
<g>
<g>
<path class="st0" d="M28,25.8L26.8,26c0,0-0.4,0-0.8,0c-1.3,0-2.1-0.3-2.5-0.9c-0.1-0.1-0.2-0.4-0.3-0.7c-0.6-0.4-1.2-0.8-1.9-1.3    c0,0-0.1-0.1-0.1-0.1c-1.2,0.7-2.6,1.1-4.2,1.1c-3.6,0-6.3-0.8-8.2-2.3l-0.6-0.5c-1-0.1-2-0.7-2.9-1.7c-1.6-1.8-1.8-4.1-0.6-5.3    c0.5-0.4,1.1-0.7,1.8-0.7c0.3,0,0.7,0.1,1,0.2c0.2-0.6,0.5-1.1,0.9-1.6V9.5c0-0.7,0.5-1.2,1.1-1.2c0.4,0,0.8,0.3,1,0.7l0,0.1    c0.3,0.6,0.6,1.3,1.2,1.9c0.5,0.1,1,0.2,1.5,0.5c0.7-0.5,1.6-0.7,2.4-0.7c1,0,1.9,0.3,2.7,0.9c2.6-0.9,3.9-2.9,4.4-4    C23,7.3,23.4,7,23.9,7c0.6,0,1.2,0.5,1.2,1.1c0.6,6,0,10.3-1.9,12.9c0.5,0.4,1,0.7,1.4,1.1c0.1,0,0.3,0,0.4,0    c1.3,0,2.2,1.8,2.5,2.6L28,25.8z"/>
<path class="st1" d="M17,23.1c-3.8,0-6.2-0.9-7.6-2.1c0.3-0.1,0.7-0.3,0.9-0.5c0.7-0.6,0.8-1.6,0.7-2.4c0-0.2-0.1-0.3-0.1-0.5    c0.2,0,0.3,0,0.5,0c0.7,0,1.4-0.3,1.8-0.9c0.5,0.9,1.4,1.6,2.5,1.6c1.4,0,2.6-1,2.8-2.4c0-0.2,0.1-0.4,0.1-0.6    c0-0.3-0.1-0.7-0.2-1c-0.4-1.2-1.5-2-2.7-2c-0.7,0-1.4,0.3-1.9,0.8c-0.2,0.2-0.3,0.3-0.5,0.6c-0.1-0.2-0.3-0.4-0.5-0.5    c-0.4-0.3-0.9-0.5-1.5-0.5c-1.2,0-2.2,0.9-2.4,2.1c-0.2-0.2-0.4-0.3-0.6-0.4c0.2-0.7,0.5-1.3,1.1-1.7V9.5c0-0.2,0.3-0.3,0.3-0.1    l0,0.1c0.3,0.7,0.7,1.7,1.6,2.5c0.7,0,1.4,0.3,1.9,0.7c0.6-0.6,1.5-1,2.4-1c0.9,0,1.8,0.4,2.5,1c3-0.9,4.7-3,5.4-4.6    c0.1-0.2,0.5-0.2,0.6,0.1c0.5,4.9,0.3,9.9-2,12.7c-0.8-0.6-1.6-1-2.2-1.4c0,0-0.1-0.1-0.1-0.1c0-0.1,0-0.1,0-0.2l0,0    c-0.2-0.5-0.6-1-1.1-1.1l0,0c-0.2-0.1-0.4,0-0.4,0.2c-0.1,0.2,0,0.4,0.2,0.5l0,0c0,0,0,0,0.1,0c-1.4,0.9-3,1.3-4.6,1.2l-0.4,0    c-0.2,0-0.4,0.1-0.4,0.3c0,0.2,0.1,0.4,0.3,0.4l0.4,0c1.5,0.1,2.9-0.2,4.3-0.9c0,0,0,0,0,0c0.1,0.1,0.1,0.2,0.2,0.3    c0.2,0.2,0.4,0.4,0.7,0.7c0.4,0.4,1,0.8,1.6,1.3C19.8,22.8,18.5,23.1,17,23.1L17,23.1z"/>
<path class="st1" d="M21.2,21.9c-1-0.7-1.8-1.4-2.2-1.8c0,0-0.1-0.1-0.1-0.1c-0.1-0.1-0.2-0.2-0.2-0.3c0,0,0-0.1,0-0.1    c0,0,0.1,0,0.2,0c0.1,0,0.2,0,0.2,0.1c0.1,0,0.1,0,0.2,0.1c0.6,0.3,1.6,0.8,2.6,1.6c0.2,0.1,0.3,0.2,0.5,0.3    c0.9,0.6,1.6,1.2,2.2,1.7c1-1.1,2.1,1.8,2.1,1.8s-3,0.4-2.5-1.2c-0.7-0.4-1.5-0.9-2.4-1.5C21.6,22.2,21.4,22,21.2,21.9L21.2,21.9z    "/>
<path class="st2" d="M10,19.7C10,19.8,9.9,19.9,9.8,20C9,20.8,7.3,20.4,6,19c-1.2-1.4-1.5-3.1-0.6-4c0.7-0.6,1.8-0.5,2.8,0.1    c0.3,0.2,0.5,0.4,0.8,0.6c0.1,0.1,0.1,0.1,0.2,0.2c0.3,0.4,0.6,0.8,0.8,1.2c0.2,0.6,0.4,1.1,0.3,1.6C10.3,19.2,10.2,19.5,10,19.7    L10,19.7z M7.3,16.2c0,0.7-0.4,1.2-0.9,1.2c-0.5,0-0.9-0.5-0.9-1.2c0-0.7,0.4-1.2,0.9-1.2C6.9,15.1,7.3,15.6,7.3,16.2z"/>
<path class="st1" d="M11.9,16.7c0.8,0,1.4-0.6,1.4-1.4c0-0.8-0.6-1.4-1.4-1.4c-0.1,0-0.2,0-0.3,0c0.3,0.1,0.6,0.4,0.6,0.8    c0,0.5-0.4,0.8-0.8,0.8c-0.4,0-0.7-0.2-0.8-0.6c0,0.1,0,0.2,0,0.3C10.6,16.1,11.2,16.7,11.9,16.7z"/>
<path class="st1" d="M16.3,17.4c0.9,0,1.6-0.7,1.6-1.7c0-0.9-0.7-1.7-1.6-1.7c-0.1,0-0.2,0-0.3,0c0.4,0.1,0.7,0.5,0.7,0.9    c0,0.5-0.4,1-0.9,1s-0.9-0.4-0.9-1c0-0.1,0-0.1,0-0.2c-0.2,0.3-0.2,0.6-0.2,0.9C14.7,16.7,15.4,17.4,16.3,17.4L16.3,17.4z"/>
</g>
</g>
</svg>